<mxfile host="app.diagrams.net" agent="Mozilla/5.0 (Windows NT 10.0; Win64; x64) AppleWebKit/537.36 (KHTML, like Gecko) Chrome/132.0.0.0 Safari/537.36" version="26.0.11">
  <diagram name="Page-1" id="2YBvvXClWsGukQMizWep">
    <mxGraphModel grid="1" page="1" gridSize="10" guides="1" tooltips="1" connect="1" arrows="1" fold="1" pageScale="1" pageWidth="827" pageHeight="1169" math="0" shadow="0">
      <root>
        <mxCell id="0" />
        <mxCell id="1" parent="0" />
        <mxCell id="xSaVDzWPFG-GgGYXuGze-5" value="loop" style="shape=umlFrame;whiteSpace=wrap;html=1;pointerEvents=0;recursiveResize=0;container=0;collapsible=0;width=60;height=20;fontColor=light-dark(#000000,#FFFFFF);" vertex="1" parent="1">
          <mxGeometry x="170" y="1210" width="200" height="120" as="geometry" />
        </mxCell>
        <mxCell id="xSaVDzWPFG-GgGYXuGze-6" value="[numTappe &amp;lt; n]" style="text;html=1;align=center;verticalAlign=middle;resizable=0;points=[];autosize=1;strokeColor=none;fillColor=none;fontColor=light-dark(#000000,#FFFFFF);fontSize=10;" vertex="1" parent="1">
          <mxGeometry x="180" y="1230" width="90" height="30" as="geometry" />
        </mxCell>
        <mxCell id="cJYip_KYAqq7Ic-ZEoHg-1" value="&lt;font style=&quot;color: light-dark(rgb(0, 0, 0), rgb(255, 128, 0));&quot;&gt;o : GUI&lt;br&gt;itinerario ticket corriere&lt;/font&gt;" style="shape=umlLifeline;perimeter=lifelinePerimeter;whiteSpace=wrap;html=1;container=0;dropTarget=0;collapsible=0;recursiveResize=0;outlineConnect=0;portConstraint=eastwest;newEdgeStyle={&quot;edgeStyle&quot;:&quot;elbowEdgeStyle&quot;,&quot;elbow&quot;:&quot;vertical&quot;,&quot;curved&quot;:0,&quot;rounded&quot;:0};fontColor=light-dark(#000000,#FFFFFF);" vertex="1" parent="1">
          <mxGeometry x="530" y="430" width="100" height="650" as="geometry" />
        </mxCell>
        <mxCell id="cJYip_KYAqq7Ic-ZEoHg-2" value="" style="html=1;points=[];perimeter=orthogonalPerimeter;outlineConnect=0;targetShapes=umlLifeline;portConstraint=eastwest;newEdgeStyle={&quot;edgeStyle&quot;:&quot;elbowEdgeStyle&quot;,&quot;elbow&quot;:&quot;vertical&quot;,&quot;curved&quot;:0,&quot;rounded&quot;:0};fontColor=light-dark(#000000,#FFFFFF);" vertex="1" parent="cJYip_KYAqq7Ic-ZEoHg-1">
          <mxGeometry x="45" y="80" width="10" height="560" as="geometry" />
        </mxCell>
        <mxCell id="cJYip_KYAqq7Ic-ZEoHg-3" value="&lt;font style=&quot;color: light-dark(rgb(0, 0, 0), rgb(255, 0, 0));&quot;&gt;tc : ticket controller&amp;nbsp;&lt;/font&gt;" style="shape=umlLifeline;perimeter=lifelinePerimeter;whiteSpace=wrap;html=1;container=0;dropTarget=0;collapsible=0;recursiveResize=0;outlineConnect=0;portConstraint=eastwest;newEdgeStyle={&quot;edgeStyle&quot;:&quot;elbowEdgeStyle&quot;,&quot;elbow&quot;:&quot;vertical&quot;,&quot;curved&quot;:0,&quot;rounded&quot;:0};fontColor=light-dark(#000000,#FFFFFF);" vertex="1" parent="1">
          <mxGeometry x="830" y="430" width="100" height="640" as="geometry" />
        </mxCell>
        <mxCell id="cJYip_KYAqq7Ic-ZEoHg-4" value="" style="html=1;points=[];perimeter=orthogonalPerimeter;outlineConnect=0;targetShapes=umlLifeline;portConstraint=eastwest;newEdgeStyle={&quot;edgeStyle&quot;:&quot;elbowEdgeStyle&quot;,&quot;elbow&quot;:&quot;vertical&quot;,&quot;curved&quot;:0,&quot;rounded&quot;:0};fontColor=light-dark(#000000,#FFFFFF);" vertex="1" parent="cJYip_KYAqq7Ic-ZEoHg-3">
          <mxGeometry x="45" y="130" width="10" height="500" as="geometry" />
        </mxCell>
        <mxCell id="cJYip_KYAqq7Ic-ZEoHg-5" value="displayTicket(ticket)" style="html=1;verticalAlign=bottom;endArrow=open;dashed=1;endSize=8;edgeStyle=elbowEdgeStyle;elbow=vertical;curved=0;rounded=0;fontColor=light-dark(#000000,#FFFFFF);" edge="1" parent="1">
          <mxGeometry relative="1" as="geometry">
            <mxPoint x="584.9999999999998" y="1050" as="targetPoint" />
            <Array as="points">
              <mxPoint x="750" y="1050" />
              <mxPoint x="830" y="1110" />
              <mxPoint x="840" y="1080" />
              <mxPoint x="815" y="1180" />
              <mxPoint x="755" y="1260" />
              <mxPoint x="425" y="1240" />
              <mxPoint x="547" y="1160" />
            </Array>
            <mxPoint x="874.9999999999998" y="1050" as="sourcePoint" />
            <mxPoint as="offset" />
          </mxGeometry>
        </mxCell>
        <mxCell id="cJYip_KYAqq7Ic-ZEoHg-6" value="Svolgimento Ticket&lt;br&gt;(CONSEGNA)" style="shape=umlFrame;whiteSpace=wrap;html=1;pointerEvents=0;recursiveResize=0;container=0;collapsible=0;width=160;fontColor=light-dark(#000000,#FFFFFF);" vertex="1" parent="1">
          <mxGeometry x="170" y="320" width="3170" height="800" as="geometry" />
        </mxCell>
        <mxCell id="cJYip_KYAqq7Ic-ZEoHg-7" value="Corriere" style="shape=umlActor;verticalLabelPosition=bottom;verticalAlign=top;html=1;outlineConnect=0;fontColor=light-dark(#000000,#FFFFFF);" vertex="1" parent="1">
          <mxGeometry x="280" y="390" width="30" height="60" as="geometry" />
        </mxCell>
        <mxCell id="cJYip_KYAqq7Ic-ZEoHg-8" value="" style="endArrow=none;dashed=1;html=1;rounded=0;fontColor=light-dark(#000000,#FFFFFF);" edge="1" parent="1" source="cJYip_KYAqq7Ic-ZEoHg-10">
          <mxGeometry width="50" height="50" relative="1" as="geometry">
            <mxPoint x="294.72" y="730" as="sourcePoint" />
            <mxPoint x="295" y="470" as="targetPoint" />
          </mxGeometry>
        </mxCell>
        <mxCell id="cJYip_KYAqq7Ic-ZEoHg-9" value="" style="endArrow=none;dashed=1;html=1;rounded=0;fontColor=light-dark(#000000,#FFFFFF);" edge="1" parent="1" target="cJYip_KYAqq7Ic-ZEoHg-10">
          <mxGeometry width="50" height="50" relative="1" as="geometry">
            <mxPoint x="295" y="1100" as="sourcePoint" />
            <mxPoint x="294.72" y="480" as="targetPoint" />
          </mxGeometry>
        </mxCell>
        <mxCell id="cJYip_KYAqq7Ic-ZEoHg-10" value="" style="html=1;points=[];perimeter=orthogonalPerimeter;outlineConnect=0;targetShapes=umlLifeline;portConstraint=eastwest;newEdgeStyle={&quot;edgeStyle&quot;:&quot;elbowEdgeStyle&quot;,&quot;elbow&quot;:&quot;vertical&quot;,&quot;curved&quot;:0,&quot;rounded&quot;:0};fontColor=light-dark(#000000,#FFFFFF);" vertex="1" parent="1">
          <mxGeometry x="290" y="500" width="10" height="570" as="geometry" />
        </mxCell>
        <mxCell id="cJYip_KYAqq7Ic-ZEoHg-11" value="ConfermaTappaCompletata()" style="html=1;verticalAlign=bottom;endArrow=block;edgeStyle=elbowEdgeStyle;elbow=vertical;curved=0;rounded=0;fontColor=light-dark(#000000,#FFFFFF);" edge="1" parent="1" target="cJYip_KYAqq7Ic-ZEoHg-2">
          <mxGeometry relative="1" as="geometry">
            <mxPoint x="300" y="520" as="sourcePoint" />
            <Array as="points">
              <mxPoint x="385" y="520" />
            </Array>
            <mxPoint x="470" y="520" as="targetPoint" />
            <mxPoint as="offset" />
          </mxGeometry>
        </mxCell>
        <mxCell id="cJYip_KYAqq7Ic-ZEoHg-12" value="svolgimentoTicketSuTappa()" style="html=1;verticalAlign=bottom;endArrow=block;edgeStyle=elbowEdgeStyle;elbow=vertical;curved=0;rounded=0;fontColor=light-dark(#000000,#FFFFFF);" edge="1" parent="1">
          <mxGeometry x="-0.0049" relative="1" as="geometry">
            <mxPoint x="585" y="570" as="sourcePoint" />
            <Array as="points">
              <mxPoint x="865" y="570" />
              <mxPoint x="950" y="604.5799999999999" />
              <mxPoint x="870" y="514.5799999999999" />
            </Array>
            <mxPoint x="875" y="570" as="targetPoint" />
            <mxPoint as="offset" />
          </mxGeometry>
        </mxCell>
        <mxCell id="cJYip_KYAqq7Ic-ZEoHg-13" value="t:TicketConsegnaAdapter" style="shape=umlLifeline;perimeter=lifelinePerimeter;whiteSpace=wrap;html=1;container=0;dropTarget=0;collapsible=0;recursiveResize=0;outlineConnect=0;portConstraint=eastwest;newEdgeStyle={&quot;edgeStyle&quot;:&quot;elbowEdgeStyle&quot;,&quot;elbow&quot;:&quot;vertical&quot;,&quot;curved&quot;:0,&quot;rounded&quot;:0};fontColor=light-dark(#000000,#FFFFFF);" vertex="1" parent="1">
          <mxGeometry x="1080" y="430" width="100" height="630" as="geometry" />
        </mxCell>
        <mxCell id="cJYip_KYAqq7Ic-ZEoHg-14" value="" style="html=1;points=[];perimeter=orthogonalPerimeter;outlineConnect=0;targetShapes=umlLifeline;portConstraint=eastwest;newEdgeStyle={&quot;edgeStyle&quot;:&quot;elbowEdgeStyle&quot;,&quot;elbow&quot;:&quot;vertical&quot;,&quot;curved&quot;:0,&quot;rounded&quot;:0};fontColor=light-dark(#000000,#FFFFFF);" vertex="1" parent="cJYip_KYAqq7Ic-ZEoHg-13">
          <mxGeometry x="45" y="140" width="10" height="480" as="geometry" />
        </mxCell>
        <mxCell id="cJYip_KYAqq7Ic-ZEoHg-15" value="CONTROLLER&lt;br&gt;DI CASO D&#39;USO" style="text;html=1;align=center;verticalAlign=middle;resizable=0;points=[];autosize=1;strokeColor=none;fillColor=none;fontColor=light-dark(#000000,#FFFFFF);" vertex="1" parent="1">
          <mxGeometry x="825" y="383" width="110" height="40" as="geometry" />
        </mxCell>
        <mxCell id="cJYip_KYAqq7Ic-ZEoHg-16" value="possibile inserimento di un login&lt;br&gt;per il corriere cosÃ¬ che veda&lt;br&gt;solo i ticket a lui assegnati" style="text;html=1;align=center;verticalAlign=middle;resizable=0;points=[];autosize=1;strokeColor=none;fillColor=none;" vertex="1" parent="1">
          <mxGeometry x="340" y="530" width="190" height="60" as="geometry" />
        </mxCell>
        <mxCell id="cJYip_KYAqq7Ic-ZEoHg-17" value="return interfaccia aggiornata" style="html=1;verticalAlign=bottom;endArrow=open;dashed=1;endSize=8;edgeStyle=elbowEdgeStyle;elbow=vertical;curved=0;rounded=0;fontColor=light-dark(#000000,#FFFFFF);" edge="1" parent="1" source="cJYip_KYAqq7Ic-ZEoHg-2" target="cJYip_KYAqq7Ic-ZEoHg-10">
          <mxGeometry x="0.0027" relative="1" as="geometry">
            <mxPoint x="330" y="790" as="targetPoint" />
            <Array as="points">
              <mxPoint x="540" y="1060" />
              <mxPoint x="550" y="780" />
              <mxPoint x="530" y="760" />
              <mxPoint x="550" y="790" />
              <mxPoint x="515" y="850" />
              <mxPoint x="450" y="930" />
              <mxPoint x="120" y="910" />
              <mxPoint x="242" y="830" />
            </Array>
            <mxPoint x="570" y="850" as="sourcePoint" />
            <mxPoint as="offset" />
          </mxGeometry>
        </mxCell>
        <mxCell id="cJYip_KYAqq7Ic-ZEoHg-18" value="DB" style="shape=umlLifeline;perimeter=lifelinePerimeter;whiteSpace=wrap;html=1;container=0;dropTarget=0;collapsible=0;recursiveResize=0;outlineConnect=0;portConstraint=eastwest;newEdgeStyle={&quot;edgeStyle&quot;:&quot;elbowEdgeStyle&quot;,&quot;elbow&quot;:&quot;vertical&quot;,&quot;curved&quot;:0,&quot;rounded&quot;:0};fontColor=light-dark(#000000,#FFFFFF);" vertex="1" parent="1">
          <mxGeometry x="3150" y="430" width="100" height="450" as="geometry" />
        </mxCell>
        <mxCell id="cJYip_KYAqq7Ic-ZEoHg-19" value="" style="html=1;points=[];perimeter=orthogonalPerimeter;outlineConnect=0;targetShapes=umlLifeline;portConstraint=eastwest;newEdgeStyle={&quot;edgeStyle&quot;:&quot;elbowEdgeStyle&quot;,&quot;elbow&quot;:&quot;vertical&quot;,&quot;curved&quot;:0,&quot;rounded&quot;:0};fontColor=light-dark(#000000,#FFFFFF);" vertex="1" parent="cJYip_KYAqq7Ic-ZEoHg-18">
          <mxGeometry x="45" y="370" width="10" height="70" as="geometry" />
        </mxCell>
        <mxCell id="cJYip_KYAqq7Ic-ZEoHg-20" value="consegnaCapi()" style="html=1;verticalAlign=bottom;endArrow=block;edgeStyle=elbowEdgeStyle;elbow=vertical;curved=0;rounded=0;fontColor=light-dark(#000000,#FFFFFF);" edge="1" parent="1" source="cJYip_KYAqq7Ic-ZEoHg-14" target="cJYip_KYAqq7Ic-ZEoHg-23">
          <mxGeometry relative="1" as="geometry">
            <mxPoint x="1150" y="710" as="sourcePoint" />
            <Array as="points">
              <mxPoint x="1260" y="610" />
              <mxPoint x="1270" y="630" />
              <mxPoint x="1285" y="709.6599999999999" />
              <mxPoint x="1325" y="739.6599999999999" />
              <mxPoint x="1478" y="774.0699999999997" />
              <mxPoint x="1398" y="684.0699999999999" />
            </Array>
            <mxPoint x="1290" y="630" as="targetPoint" />
            <mxPoint as="offset" />
          </mxGeometry>
        </mxCell>
        <mxCell id="cJYip_KYAqq7Ic-ZEoHg-21" value="return ticket" style="html=1;verticalAlign=bottom;endArrow=open;dashed=1;endSize=8;edgeStyle=elbowEdgeStyle;elbow=vertical;curved=0;rounded=0;fontColor=light-dark(#000000,#FFFFFF);" edge="1" parent="1">
          <mxGeometry relative="1" as="geometry">
            <mxPoint x="885" y="1040" as="targetPoint" />
            <Array as="points">
              <mxPoint x="1060" y="1040" />
              <mxPoint x="995" y="990" />
              <mxPoint x="1075" y="1050" />
              <mxPoint x="1085" y="1020" />
              <mxPoint x="1060" y="1120" />
              <mxPoint x="1000" y="1200" />
              <mxPoint x="670" y="1180" />
              <mxPoint x="792" y="1100" />
            </Array>
            <mxPoint x="1125" y="1040" as="sourcePoint" />
            <mxPoint as="offset" />
          </mxGeometry>
        </mxCell>
        <mxCell id="cJYip_KYAqq7Ic-ZEoHg-22" value="t1:TicketConsegna" style="shape=umlLifeline;perimeter=lifelinePerimeter;whiteSpace=wrap;html=1;container=0;dropTarget=0;collapsible=0;recursiveResize=0;outlineConnect=0;portConstraint=eastwest;newEdgeStyle={&quot;edgeStyle&quot;:&quot;elbowEdgeStyle&quot;,&quot;elbow&quot;:&quot;vertical&quot;,&quot;curved&quot;:0,&quot;rounded&quot;:0};fontColor=light-dark(#000000,#FFFFFF);" vertex="1" parent="1">
          <mxGeometry x="1260" y="430" width="100" height="210" as="geometry" />
        </mxCell>
        <mxCell id="cJYip_KYAqq7Ic-ZEoHg-23" value="" style="html=1;points=[];perimeter=orthogonalPerimeter;outlineConnect=0;targetShapes=umlLifeline;portConstraint=eastwest;newEdgeStyle={&quot;edgeStyle&quot;:&quot;elbowEdgeStyle&quot;,&quot;elbow&quot;:&quot;vertical&quot;,&quot;curved&quot;:0,&quot;rounded&quot;:0};fontColor=light-dark(#000000,#FFFFFF);" vertex="1" parent="cJYip_KYAqq7Ic-ZEoHg-22">
          <mxGeometry x="45" y="170" width="10" height="30" as="geometry" />
        </mxCell>
        <mxCell id="cJYip_KYAqq7Ic-ZEoHg-24" value="trasferimentoCapi()" style="html=1;verticalAlign=bottom;endArrow=block;edgeStyle=elbowEdgeStyle;elbow=vertical;curved=0;rounded=0;fontColor=light-dark(#000000,#FFFFFF);" edge="1" parent="1">
          <mxGeometry relative="1" as="geometry">
            <mxPoint x="885" y="584.6300000000001" as="sourcePoint" />
            <Array as="points">
              <mxPoint x="1080" y="584.6300000000001" />
              <mxPoint x="1040" y="634.6300000000001" />
              <mxPoint x="1080" y="664.6300000000001" />
              <mxPoint x="1233" y="699.04" />
              <mxPoint x="1153" y="609.04" />
            </Array>
            <mxPoint x="1125" y="584.6300000000001" as="targetPoint" />
            <mxPoint as="offset" />
          </mxGeometry>
        </mxCell>
        <mxCell id="cJYip_KYAqq7Ic-ZEoHg-25" value="t : Tappa" style="shape=umlLifeline;perimeter=lifelinePerimeter;whiteSpace=wrap;html=1;container=0;dropTarget=0;collapsible=0;recursiveResize=0;outlineConnect=0;portConstraint=eastwest;newEdgeStyle={&quot;edgeStyle&quot;:&quot;elbowEdgeStyle&quot;,&quot;elbow&quot;:&quot;vertical&quot;,&quot;curved&quot;:0,&quot;rounded&quot;:0};fontColor=light-dark(#000000,#FFFFFF);" vertex="1" parent="1">
          <mxGeometry x="1650" y="430" width="100" height="610" as="geometry" />
        </mxCell>
        <mxCell id="cJYip_KYAqq7Ic-ZEoHg-26" value="" style="html=1;points=[];perimeter=orthogonalPerimeter;outlineConnect=0;targetShapes=umlLifeline;portConstraint=eastwest;newEdgeStyle={&quot;edgeStyle&quot;:&quot;elbowEdgeStyle&quot;,&quot;elbow&quot;:&quot;vertical&quot;,&quot;curved&quot;:0,&quot;rounded&quot;:0};fontColor=light-dark(#000000,#FFFFFF);" vertex="1" parent="cJYip_KYAqq7Ic-ZEoHg-25">
          <mxGeometry x="45" y="200" width="10" height="400" as="geometry" />
        </mxCell>
        <mxCell id="cJYip_KYAqq7Ic-ZEoHg-27" value="i : Itinerario" style="shape=umlLifeline;perimeter=lifelinePerimeter;whiteSpace=wrap;html=1;container=0;dropTarget=0;collapsible=0;recursiveResize=0;outlineConnect=0;portConstraint=eastwest;newEdgeStyle={&quot;edgeStyle&quot;:&quot;elbowEdgeStyle&quot;,&quot;elbow&quot;:&quot;vertical&quot;,&quot;curved&quot;:0,&quot;rounded&quot;:0};fontColor=light-dark(#000000,#FFFFFF);" vertex="1" parent="1">
          <mxGeometry x="1450" y="430" width="100" height="240" as="geometry" />
        </mxCell>
        <mxCell id="cJYip_KYAqq7Ic-ZEoHg-28" value="" style="html=1;points=[];perimeter=orthogonalPerimeter;outlineConnect=0;targetShapes=umlLifeline;portConstraint=eastwest;newEdgeStyle={&quot;edgeStyle&quot;:&quot;elbowEdgeStyle&quot;,&quot;elbow&quot;:&quot;vertical&quot;,&quot;curved&quot;:0,&quot;rounded&quot;:0};fontColor=light-dark(#000000,#FFFFFF);" vertex="1" parent="cJYip_KYAqq7Ic-ZEoHg-27">
          <mxGeometry x="45" y="180" width="10" height="50" as="geometry" />
        </mxCell>
        <mxCell id="cJYip_KYAqq7Ic-ZEoHg-29" value="t : Totem" style="shape=umlLifeline;perimeter=lifelinePerimeter;whiteSpace=wrap;html=1;container=0;dropTarget=0;collapsible=0;recursiveResize=0;outlineConnect=0;portConstraint=eastwest;newEdgeStyle={&quot;edgeStyle&quot;:&quot;elbowEdgeStyle&quot;,&quot;elbow&quot;:&quot;vertical&quot;,&quot;curved&quot;:0,&quot;rounded&quot;:0};fontColor=light-dark(#000000,#FFFFFF);" vertex="1" parent="1">
          <mxGeometry x="2150" y="430" width="100" height="440" as="geometry" />
        </mxCell>
        <mxCell id="cJYip_KYAqq7Ic-ZEoHg-30" value="" style="html=1;points=[];perimeter=orthogonalPerimeter;outlineConnect=0;targetShapes=umlLifeline;portConstraint=eastwest;newEdgeStyle={&quot;edgeStyle&quot;:&quot;elbowEdgeStyle&quot;,&quot;elbow&quot;:&quot;vertical&quot;,&quot;curved&quot;:0,&quot;rounded&quot;:0};fontColor=light-dark(#000000,#FFFFFF);" vertex="1" parent="cJYip_KYAqq7Ic-ZEoHg-29">
          <mxGeometry x="45" y="270" width="10" height="160" as="geometry" />
        </mxCell>
        <mxCell id="cJYip_KYAqq7Ic-ZEoHg-31" value="getTappaCorrente()" style="html=1;verticalAlign=bottom;endArrow=block;edgeStyle=elbowEdgeStyle;elbow=vertical;curved=0;rounded=0;fontColor=light-dark(#000000,#FFFFFF);" edge="1" parent="1">
          <mxGeometry relative="1" as="geometry">
            <mxPoint x="1315" y="620" as="sourcePoint" />
            <Array as="points">
              <mxPoint x="1445" y="620" />
              <mxPoint x="1455" y="640" />
              <mxPoint x="1470" y="719.6599999999999" />
              <mxPoint x="1510" y="749.6599999999999" />
              <mxPoint x="1663" y="784.0699999999997" />
              <mxPoint x="1583" y="694.0699999999999" />
            </Array>
            <mxPoint x="1495" y="620" as="targetPoint" />
            <mxPoint as="offset" />
          </mxGeometry>
        </mxCell>
        <mxCell id="cJYip_KYAqq7Ic-ZEoHg-32" value="setStato(true)" style="html=1;verticalAlign=bottom;endArrow=block;edgeStyle=elbowEdgeStyle;elbow=vertical;curved=0;rounded=0;fontColor=light-dark(#000000,#FFFFFF);" edge="1" parent="1" target="cJYip_KYAqq7Ic-ZEoHg-26">
          <mxGeometry relative="1" as="geometry">
            <mxPoint x="1505.0000000000002" y="640" as="sourcePoint" />
            <Array as="points">
              <mxPoint x="1640" y="640" />
              <mxPoint x="1650" y="660" />
              <mxPoint x="1665" y="739.6599999999999" />
              <mxPoint x="1705" y="769.6599999999999" />
              <mxPoint x="1858" y="804.0699999999997" />
              <mxPoint x="1778" y="714.0699999999999" />
            </Array>
            <mxPoint x="1675" y="640" as="targetPoint" />
            <mxPoint as="offset" />
          </mxGeometry>
        </mxCell>
        <mxCell id="cJYip_KYAqq7Ic-ZEoHg-33" value="getTotem()" style="html=1;verticalAlign=bottom;endArrow=block;edgeStyle=elbowEdgeStyle;elbow=vertical;curved=0;rounded=0;fontColor=light-dark(#000000,#FFFFFF);" edge="1" parent="1" target="cJYip_KYAqq7Ic-ZEoHg-52">
          <mxGeometry relative="1" as="geometry">
            <mxPoint x="1705" y="710" as="sourcePoint" />
            <Array as="points">
              <mxPoint x="1845" y="710" />
              <mxPoint x="1855" y="730" />
              <mxPoint x="1870" y="809.6599999999999" />
              <mxPoint x="1910" y="839.6599999999999" />
              <mxPoint x="2063" y="874.0699999999997" />
              <mxPoint x="1983" y="784.0699999999997" />
            </Array>
            <mxPoint x="1935" y="710" as="targetPoint" />
            <mxPoint as="offset" />
          </mxGeometry>
        </mxCell>
        <mxCell id="cJYip_KYAqq7Ic-ZEoHg-34" value="RIEPILOGO PROX TAPPA + TASTO" style="text;html=1;align=center;verticalAlign=middle;resizable=0;points=[];autosize=1;strokeColor=none;fillColor=none;fontColor=light-dark(#000000,#FF8000);" vertex="1" parent="1">
          <mxGeometry x="470" y="383" width="220" height="30" as="geometry" />
        </mxCell>
        <mxCell id="cJYip_KYAqq7Ic-ZEoHg-37" value="CapoDAO" style="shape=umlLifeline;perimeter=lifelinePerimeter;whiteSpace=wrap;html=1;container=0;dropTarget=0;collapsible=0;recursiveResize=0;outlineConnect=0;portConstraint=eastwest;newEdgeStyle={&quot;edgeStyle&quot;:&quot;elbowEdgeStyle&quot;,&quot;elbow&quot;:&quot;vertical&quot;,&quot;curved&quot;:0,&quot;rounded&quot;:0};fontColor=light-dark(#000000,#FFFFFF);" vertex="1" parent="1">
          <mxGeometry x="2895" y="430" width="100" height="410" as="geometry" />
        </mxCell>
        <mxCell id="cJYip_KYAqq7Ic-ZEoHg-38" value="" style="html=1;points=[];perimeter=orthogonalPerimeter;outlineConnect=0;targetShapes=umlLifeline;portConstraint=eastwest;newEdgeStyle={&quot;edgeStyle&quot;:&quot;elbowEdgeStyle&quot;,&quot;elbow&quot;:&quot;vertical&quot;,&quot;curved&quot;:0,&quot;rounded&quot;:0};fontColor=light-dark(#000000,#FFFFFF);" vertex="1" parent="cJYip_KYAqq7Ic-ZEoHg-37">
          <mxGeometry x="45" y="350" width="10" height="50" as="geometry" />
        </mxCell>
        <mxCell id="cJYip_KYAqq7Ic-ZEoHg-40" value="loop" style="shape=umlFrame;whiteSpace=wrap;html=1;pointerEvents=0;recursiveResize=0;container=0;collapsible=0;width=60;height=20;fontColor=light-dark(#000000,#FFFFFF);strokeColor=light-dark(#000000,#00FF00);" vertex="1" parent="1">
          <mxGeometry x="2130" y="730" width="1090" height="170" as="geometry" />
        </mxCell>
        <mxCell id="cJYip_KYAqq7Ic-ZEoHg-41" value="[numCapiXNegozio &amp;lt; n]" style="text;html=1;align=center;verticalAlign=middle;resizable=0;points=[];autosize=1;strokeColor=none;fillColor=none;fontColor=light-dark(#000000,#FFFFFF);fontSize=5;" vertex="1" parent="1">
          <mxGeometry x="2120" y="750" width="80" height="20" as="geometry" />
        </mxCell>
        <mxCell id="cJYip_KYAqq7Ic-ZEoHg-42" value="loop" style="shape=umlFrame;whiteSpace=wrap;html=1;pointerEvents=0;recursiveResize=0;container=0;collapsible=0;width=60;height=20;fontColor=light-dark(#000000,#FFFFFF);strokeColor=light-dark(#000000,#FFFF00);" vertex="1" parent="1">
          <mxGeometry x="2340" y="780" width="870" height="100" as="geometry" />
        </mxCell>
        <mxCell id="cJYip_KYAqq7Ic-ZEoHg-43" value="[numCapi &amp;lt; n]" style="text;html=1;align=center;verticalAlign=middle;resizable=0;points=[];autosize=1;strokeColor=none;fillColor=none;fontColor=light-dark(#000000,#FFFFFF);fontSize=8;" vertex="1" parent="1">
          <mxGeometry x="2335" y="800" width="70" height="20" as="geometry" />
        </mxCell>
        <mxCell id="cJYip_KYAqq7Ic-ZEoHg-44" value="updateCapo()" style="html=1;verticalAlign=bottom;endArrow=block;edgeStyle=elbowEdgeStyle;elbow=vertical;curved=0;rounded=0;fontColor=light-dark(#000000,#FFFFFF);" edge="1" parent="1" source="cJYip_KYAqq7Ic-ZEoHg-55" target="cJYip_KYAqq7Ic-ZEoHg-38">
          <mxGeometry relative="1" as="geometry">
            <mxPoint x="2430" y="790" as="sourcePoint" />
            <Array as="points">
              <mxPoint x="2740" y="810" />
              <mxPoint x="2790" y="800" />
              <mxPoint x="2575" y="790" />
              <mxPoint x="2585" y="810" />
              <mxPoint x="2600" y="889.6599999999999" />
              <mxPoint x="2640" y="919.6599999999999" />
              <mxPoint x="2793" y="954.0699999999997" />
              <mxPoint x="2713" y="864.0699999999997" />
            </Array>
            <mxPoint x="2640" y="790" as="targetPoint" />
            <mxPoint as="offset" />
          </mxGeometry>
        </mxCell>
        <mxCell id="cJYip_KYAqq7Ic-ZEoHg-45" value="executeQuery()" style="html=1;verticalAlign=bottom;endArrow=block;edgeStyle=elbowEdgeStyle;elbow=vertical;curved=0;rounded=0;fontColor=light-dark(#000000,#FFFFFF);" edge="1" parent="1" source="cJYip_KYAqq7Ic-ZEoHg-38" target="cJYip_KYAqq7Ic-ZEoHg-19">
          <mxGeometry relative="1" as="geometry">
            <mxPoint x="3095" y="810" as="sourcePoint" />
            <Array as="points">
              <mxPoint x="3050" y="820" />
              <mxPoint x="3130" y="810" />
              <mxPoint x="3290" y="880" />
              <mxPoint x="3443" y="914.4099999999999" />
              <mxPoint x="3363" y="824.4099999999999" />
            </Array>
            <mxPoint x="3275" y="810" as="targetPoint" />
            <mxPoint as="offset" />
          </mxGeometry>
        </mxCell>
        <mxCell id="cJYip_KYAqq7Ic-ZEoHg-46" value="return true" style="html=1;verticalAlign=bottom;endArrow=open;dashed=1;endSize=8;edgeStyle=elbowEdgeStyle;elbow=vertical;curved=0;rounded=0;fontColor=light-dark(#000000,#FFFFFF);" edge="1" parent="1" source="cJYip_KYAqq7Ic-ZEoHg-19" target="cJYip_KYAqq7Ic-ZEoHg-30">
          <mxGeometry relative="1" as="geometry">
            <mxPoint x="2425" y="840" as="targetPoint" />
            <Array as="points">
              <mxPoint x="2730" y="840" />
              <mxPoint x="2500" y="830" />
              <mxPoint x="2575" y="819.1300000000001" />
              <mxPoint x="1870" y="759.1300000000001" />
              <mxPoint x="1880" y="729.1300000000001" />
              <mxPoint x="1855" y="829.1300000000001" />
              <mxPoint x="1795" y="909.1300000000001" />
              <mxPoint x="1465" y="889.1300000000001" />
              <mxPoint x="1587" y="809.1300000000001" />
            </Array>
            <mxPoint x="2905" y="819" as="sourcePoint" />
            <mxPoint as="offset" />
          </mxGeometry>
        </mxCell>
        <mxCell id="cJYip_KYAqq7Ic-ZEoHg-47" value="return true" style="html=1;verticalAlign=bottom;endArrow=open;dashed=1;endSize=8;edgeStyle=elbowEdgeStyle;elbow=vertical;curved=0;rounded=0;fontColor=light-dark(#000000,#FFFFFF);" edge="1" parent="1" source="cJYip_KYAqq7Ic-ZEoHg-30">
          <mxGeometry relative="1" as="geometry">
            <mxPoint x="1703" y="850" as="targetPoint" />
            <Array as="points">
              <mxPoint x="1738" y="850" />
              <mxPoint x="1813" y="839.1300000000001" />
              <mxPoint x="1108" y="779.1300000000001" />
              <mxPoint x="1118" y="749.1300000000001" />
              <mxPoint x="1093" y="849.1300000000001" />
              <mxPoint x="1033" y="929.1300000000001" />
              <mxPoint x="703" y="909.1300000000001" />
              <mxPoint x="825" y="829.1300000000001" />
            </Array>
            <mxPoint x="2180" y="850" as="sourcePoint" />
            <mxPoint as="offset" />
          </mxGeometry>
        </mxCell>
        <mxCell id="cJYip_KYAqq7Ic-ZEoHg-48" value="return info tappa" style="html=1;verticalAlign=bottom;endArrow=open;dashed=1;endSize=8;edgeStyle=elbowEdgeStyle;elbow=vertical;curved=0;rounded=0;fontColor=light-dark(#000000,#FFFFFF);" edge="1" parent="1" target="cJYip_KYAqq7Ic-ZEoHg-14">
          <mxGeometry relative="1" as="geometry">
            <mxPoint x="755" y="1030" as="targetPoint" />
            <Array as="points">
              <mxPoint x="1365" y="1030.13" />
              <mxPoint x="660" y="970.1300000000001" />
              <mxPoint x="670" y="940.1300000000001" />
              <mxPoint x="645" y="1040.13" />
              <mxPoint x="585" y="1120.13" />
              <mxPoint x="255" y="1100.13" />
              <mxPoint x="377" y="1020.1300000000001" />
            </Array>
            <mxPoint x="1695" y="1030" as="sourcePoint" />
            <mxPoint as="offset" />
          </mxGeometry>
        </mxCell>
        <mxCell id="cJYip_KYAqq7Ic-ZEoHg-51" value="n : Negozio" style="shape=umlLifeline;perimeter=lifelinePerimeter;whiteSpace=wrap;html=1;container=0;dropTarget=0;collapsible=0;recursiveResize=0;outlineConnect=0;portConstraint=eastwest;newEdgeStyle={&quot;edgeStyle&quot;:&quot;elbowEdgeStyle&quot;,&quot;elbow&quot;:&quot;vertical&quot;,&quot;curved&quot;:0,&quot;rounded&quot;:0};fontColor=light-dark(#000000,#FFFFFF);" vertex="1" parent="1">
          <mxGeometry x="1910" y="430" width="100" height="320" as="geometry" />
        </mxCell>
        <mxCell id="cJYip_KYAqq7Ic-ZEoHg-52" value="" style="html=1;points=[];perimeter=orthogonalPerimeter;outlineConnect=0;targetShapes=umlLifeline;portConstraint=eastwest;newEdgeStyle={&quot;edgeStyle&quot;:&quot;elbowEdgeStyle&quot;,&quot;elbow&quot;:&quot;vertical&quot;,&quot;curved&quot;:0,&quot;rounded&quot;:0};fontColor=light-dark(#000000,#FFFFFF);" vertex="1" parent="cJYip_KYAqq7Ic-ZEoHg-51">
          <mxGeometry x="45" y="270" width="10" height="40" as="geometry" />
        </mxCell>
        <mxCell id="cJYip_KYAqq7Ic-ZEoHg-53" value="aggiornaListaCapiLavati()" style="html=1;verticalAlign=bottom;endArrow=block;edgeStyle=elbowEdgeStyle;elbow=vertical;curved=0;rounded=0;fontColor=light-dark(#000000,#FFFFFF);" edge="1" parent="1" source="cJYip_KYAqq7Ic-ZEoHg-52" target="cJYip_KYAqq7Ic-ZEoHg-30">
          <mxGeometry relative="1" as="geometry">
            <mxPoint x="1970" y="719.73" as="sourcePoint" />
            <Array as="points">
              <mxPoint x="2160" y="720" />
              <mxPoint x="2120" y="739.73" />
              <mxPoint x="2135" y="819.3899999999999" />
              <mxPoint x="2175" y="849.3899999999999" />
              <mxPoint x="2328" y="883.7999999999997" />
              <mxPoint x="2248" y="793.8000000000002" />
            </Array>
            <mxPoint x="2180" y="720" as="targetPoint" />
            <mxPoint as="offset" />
          </mxGeometry>
        </mxCell>
        <mxCell id="cJYip_KYAqq7Ic-ZEoHg-54" value="c : Capo" style="shape=umlLifeline;perimeter=lifelinePerimeter;whiteSpace=wrap;html=1;container=0;dropTarget=0;collapsible=0;recursiveResize=0;outlineConnect=0;portConstraint=eastwest;newEdgeStyle={&quot;edgeStyle&quot;:&quot;elbowEdgeStyle&quot;,&quot;elbow&quot;:&quot;vertical&quot;,&quot;curved&quot;:0,&quot;rounded&quot;:0};fontColor=light-dark(#000000,#FFFFFF);" vertex="1" parent="1">
          <mxGeometry x="2630" y="430" width="100" height="400" as="geometry" />
        </mxCell>
        <mxCell id="cJYip_KYAqq7Ic-ZEoHg-55" value="" style="html=1;points=[];perimeter=orthogonalPerimeter;outlineConnect=0;targetShapes=umlLifeline;portConstraint=eastwest;newEdgeStyle={&quot;edgeStyle&quot;:&quot;elbowEdgeStyle&quot;,&quot;elbow&quot;:&quot;vertical&quot;,&quot;curved&quot;:0,&quot;rounded&quot;:0};fontColor=light-dark(#000000,#FFFFFF);" vertex="1" parent="cJYip_KYAqq7Ic-ZEoHg-54">
          <mxGeometry x="45" y="300" width="10" height="90" as="geometry" />
        </mxCell>
        <mxCell id="cJYip_KYAqq7Ic-ZEoHg-56" value="setStatoCapo(statoCapo.CONSEGNATO)" style="html=1;verticalAlign=bottom;endArrow=block;edgeStyle=elbowEdgeStyle;elbow=vertical;curved=0;rounded=0;fontColor=light-dark(#000000,#FFFFFF);" edge="1" parent="1" source="cJYip_KYAqq7Ic-ZEoHg-30" target="cJYip_KYAqq7Ic-ZEoHg-55">
          <mxGeometry relative="1" as="geometry">
            <mxPoint x="2400" y="740" as="sourcePoint" />
            <Array as="points">
              <mxPoint x="2430" y="760" />
              <mxPoint x="2590" y="740" />
              <mxPoint x="2600" y="760" />
              <mxPoint x="2615" y="839.6599999999999" />
              <mxPoint x="2655" y="869.6599999999999" />
              <mxPoint x="2808" y="904.0699999999997" />
              <mxPoint x="2728" y="814.0699999999997" />
            </Array>
            <mxPoint x="2650.0000000000005" y="740" as="targetPoint" />
            <mxPoint as="offset" />
          </mxGeometry>
        </mxCell>
        <mxCell id="cJYip_KYAqq7Ic-ZEoHg-57" value="" style="shape=parallelogram;perimeter=parallelogramPerimeter;whiteSpace=wrap;html=1;fixedSize=1;strokeColor=light-dark(#000000,#FF8000);" vertex="1" parent="1">
          <mxGeometry x="390" y="80" width="350" height="150" as="geometry" />
        </mxCell>
        <mxCell id="cJYip_KYAqq7Ic-ZEoHg-58" value="consegna presso tappa corrente effettuato" style="rounded=0;whiteSpace=wrap;html=1;strokeColor=light-dark(#000000,#FF8000);" vertex="1" parent="1">
          <mxGeometry x="580" y="150" width="120" height="60" as="geometry" />
        </mxCell>
        <mxCell id="cJYip_KYAqq7Ic-ZEoHg-59" value="info tappa corrente" style="whiteSpace=wrap;html=1;strokeColor=light-dark(#000000,#FF8000);" vertex="1" parent="1">
          <mxGeometry x="430" y="150" width="120" height="60" as="geometry" />
        </mxCell>
        <mxCell id="cJYip_KYAqq7Ic-ZEoHg-60" value="GUI" style="text;html=1;align=center;verticalAlign=middle;resizable=0;points=[];autosize=1;strokeColor=none;fillColor=none;" vertex="1" parent="1">
          <mxGeometry x="550" y="90" width="40" height="30" as="geometry" />
        </mxCell>
        <mxCell id="cJYip_KYAqq7Ic-ZEoHg-63" value="" style="endArrow=classic;html=1;rounded=0;fontColor=light-dark(#000000,#FFFFFF);" edge="1" parent="1">
          <mxGeometry width="50" height="50" relative="1" as="geometry">
            <mxPoint x="2205" y="735" as="sourcePoint" />
            <mxPoint x="2205" y="745" as="targetPoint" />
            <Array as="points">
              <mxPoint x="2236.25" y="735" />
              <mxPoint x="2236.25" y="745" />
            </Array>
          </mxGeometry>
        </mxCell>
        <mxCell id="cJYip_KYAqq7Ic-ZEoHg-64" value="add()" style="edgeLabel;html=1;align=center;verticalAlign=middle;resizable=0;points=[];" connectable="0" vertex="1" parent="cJYip_KYAqq7Ic-ZEoHg-63">
          <mxGeometry x="0.0295" y="-1" relative="1" as="geometry">
            <mxPoint x="15" y="-1" as="offset" />
          </mxGeometry>
        </mxCell>
      </root>
    </mxGraphModel>
  </diagram>
</mxfile>
